<svg id="ecFHVjSXlAh1" xmlns="http://www.w3.org/2000/svg" xmlns:xlink="http://www.w3.org/1999/xlink" viewBox="0 0 128 128" shape-rendering="geometricPrecision" text-rendering="geometricPrecision" project-id="87fb30f27b2e43529d6cfdd488d96eb6" export-id="fd0cf160090c45cab76aeead441e64c2" cached="false" width="128" height="128"><path d="M3,29h26v-10.764l-1.8024-3.3756-7.0329,3.3756-2.0491-3.3756-7.4651,3.3756L9.73958,2.818h-2.6055L6.23384,18.236h-3.2329L3,29Z" transform="matrix(4.8 0 0 4.8-12.8-11.7632)" fill="#885b4a"/><g transform="matrix(.8 0 0 0.8 24.000002 59.136866)"><path d="M28.88,33.46c6.040599-9.276715,17.462767-13.476245,28.073875-10.321779s17.884208,12.91172,17.876125,23.981779" fill="none" stroke="#ffbf00" stroke-width="7" stroke-linecap="round" stroke-linejoin="round"/><polyline points="66.66,45.31 74.83,55.44 82.99,45.31" fill="none" stroke="#ffbf00" stroke-width="7" stroke-linecap="round" stroke-linejoin="round"/><path d="M71.12,66.54c-6.040599,9.276715-17.462767,13.476245-28.073875,10.321779s-17.884208-12.91172-17.876125-23.981779" fill="none" stroke="#ffbf00" stroke-width="7" stroke-linecap="round" stroke-linejoin="round"/><polyline points="33.34,54.69 25.17,44.56 17.01,54.69" fill="none" stroke="#ffbf00" stroke-width="7" stroke-linecap="round" stroke-linejoin="round"/></g></svg>
