<svg xmlns="http://www.w3.org/2000/svg" xmlns:xlink="http://www.w3.org/1999/xlink" width="32" height="32"
  viewBox="0 0 32 32">
  <path
    d="M24.208,11.269H21.152V7.647C21.152,3.431,17.316,0,12.6,0S4.05,3.431,4.05,7.647v3.622H1.542C.051,11.269,0,12.351,0,13.684v9.659c0,1.333.051,2.415,1.542,2.415H24.208c1.491,0,.995-1.082.995-2.415V13.684C25.2,12.351,25.7,11.269,24.208,11.269Zm-7.556,0h-8.1V7.647A3.859,3.859,0,0,1,12.6,4.025a3.859,3.859,0,0,1,4.05,3.622Z"
    transform="translate(3.474 3.242)"  fill="#f0f0f0"/>
</svg>