<svg xmlns="http://www.w3.org/2000/svg" xmlns:xlink="http://www.w3.org/1999/xlink" width="32" height="32" viewBox="0 0 32 32">
  <defs>
    <clipPath id="clip-OpenLock">
      <rect width="32" height="32"/>
    </clipPath>
  </defs>
  <g id="OpenLock" clip-path="url(#clip-OpenLock)">
    <path id="Path_4550" data-name="Path 4550" d="M-1580-541.013h-16.856c-1.068,0-1.147-.711-1.147-1.8v-7.183c0-1.085.08-1.8,1.147-1.8h.074v.016h7.437v-.016h3.727v-4.525a2.873,2.873,0,0,0-2.863-2.7c-.05,0-.1,0-.15,0s-.1,0-.149,0a2.871,2.871,0,0,0-2.861,2.7v.516h-3.348v-.516c0-3.136,2.852-5.687,6.358-5.687s6.361,2.551,6.361,5.687v4.525H-1580a.848.848,0,0,1,.647.2c.19.206.162.551.126.988-.016.194-.033.395-.032.61v7.183c0,.213.017.412.033.6.036.439.065.785-.126.992A.849.849,0,0,1-1580-541.013Z" transform="translate(1604.599 567.506)" fill="#f0f0f0"/>
  </g>
</svg>
