<svg id="random" xmlns="http://www.w3.org/2000/svg" xmlns:xlink="http://www.w3.org/1999/xlink" viewBox="0 0 32 32" shape-rendering="geometricPrecision" text-rendering="geometricPrecision" project-id="3efe568eeea54c1abe1ea3b13235cd27" export-id="2b6d221b9ad94246b0dfe07cf32e0861" cached="false" width="32" height="32"><g id="random-u-shuffle-random-mix-svgrepo-com" transform="matrix(1.5 0 0 1.5-2-2.075)"><g id="random-s-g1"><path id="random-s-path1" d="M8.7,14.2c-.7.5-1.6.8-2.5.8L4,15c-.6,0-1,.4-1,1s.4,1,1,1h2.2c1.3,0,2.6-.4,3.7-1.2.4-.3.5-1,.2-1.4-.4-.5-1-.6-1.4-.2Z" fill="#00d7ff"/><path id="random-s-path2" d="M13,10.7c.3,0,.6-.1.8-.3.7-.9,1.8-1.4,3-1.4h.8l-.3.3c-.4.4-.4,1,0,1.4.2.2.5.3.7.3s.5-.1.7-.3l2-2c.1-.1.2-.2.2-.3.1-.2.1-.5,0-.8-.1-.1-.1-.2-.2-.3l-2-2c-.4-.4-1-.4-1.4,0s-.4,1,0,1.4l.3.3h-.8c-1.8,0-3.4.8-4.6,2.1-.4.4-.3,1,.1,1.4.2.2.5.2.7.2Z" fill="#00d7ff"/><path id="random-s-path3" d="M20.7,15.3l-2-2c-.4-.4-1-.4-1.4,0s-.4,1,0,1.4l.3.3h-1.5c-1.6,0-2.9-.9-3.6-2.3l-1.2-2.4C10.3,8.3,8.2,7,5.9,7L4,7c-.6,0-1,.4-1,1s.4,1,1,1h1.9c1.6,0,2.9.9,3.6,2.3l1.2,2.4c1,2.1,3.1,3.4,5.4,3.4h1.5l-.3.3c-.4.4-.4,1,0,1.4.2.2.5.3.7.3s.5-.1.7-.3l2-2c.4-.5.4-1.1,0-1.5Z" fill="#00d7ff"/></g></g></svg>
