<svg xmlns="http://www.w3.org/2000/svg" xmlns:xlink="http://www.w3.org/1999/xlink" width="32" height="32"
  viewBox="0 0 32 32">
  <path
    d="M23.39,12.9h-8.1V4.187a1.872,1.872,0,0,0-1.8-1.937h-1.8A1.872,1.872,0,0,0,9.9,4.187V12.9H1.8A1.872,1.872,0,0,0,0,14.839v1.937a1.872,1.872,0,0,0,1.8,1.937H9.9v8.716a1.872,1.872,0,0,0,1.8,1.937h1.8a1.872,1.872,0,0,0,1.8-1.937V18.713h8.1a1.872,1.872,0,0,0,1.8-1.937V14.839A1.872,1.872,0,0,0,23.39,12.9Z"
    transform="translate(18.431 -4.846) rotate(45)" fill="#c00000" />
</svg>